<svg xmlns="http://www.w3.org/2000/svg" viewBox="0 0 112 220" role="img" aria-label="Patrullero top-down">
  <defs>
    <linearGradient id="policeBody" x1="0" x2="0" y1="0" y2="1">
      <stop offset="0" stop-color="#f8fafc"/>
      <stop offset="0.5" stop-color="#cbd5e1"/>
      <stop offset="1" stop-color="#475569"/>
    </linearGradient>
  </defs>
  <ellipse cx="56" cy="114" rx="46" ry="101" fill="#020617" opacity="0.36"/>
  <rect x="18" y="12" width="76" height="196" rx="19" fill="url(#policeBody)" stroke="#020617" stroke-width="6"/>
  <rect x="30" y="38" width="52" height="38" rx="9" fill="#bfdbfe" stroke="#0f172a" stroke-width="4"/>
  <rect x="23" y="92" width="66" height="30" rx="8" fill="#1d4ed8"/>
  <rect x="23" y="122" width="66" height="20" rx="5" fill="#111827"/>
  <rect x="40" y="84" width="14" height="9" rx="3" fill="#ef4444"/>
  <rect x="58" y="84" width="14" height="9" rx="3" fill="#38bdf8"/>
  <text x="56" y="164" text-anchor="middle" font-family="Arial, sans-serif" font-size="13" font-weight="900" fill="#020617">POLICIA</text>
  <rect x="14" y="42" width="12" height="34" rx="5" fill="#111827"/>
  <rect x="86" y="42" width="12" height="34" rx="5" fill="#111827"/>
  <rect x="14" y="156" width="12" height="34" rx="5" fill="#111827"/>
  <rect x="86" y="156" width="12" height="34" rx="5" fill="#111827"/>
  <rect x="31" y="18" width="18" height="8" rx="3" fill="#38bdf8"/>
  <rect x="63" y="18" width="18" height="8" rx="3" fill="#ef4444"/>
  <rect x="30" y="198" width="20" height="7" rx="3" fill="#ef4444"/>
  <rect x="62" y="198" width="20" height="7" rx="3" fill="#ef4444"/>
</svg>
