<svg xmlns="http://www.w3.org/2000/svg" viewBox="0 0 112 220" role="img" aria-label="Taxi top-down">
  <defs>
    <linearGradient id="taxiBody" x1="0" x2="0" y1="0" y2="1">
      <stop offset="0" stop-color="#fde047"/>
      <stop offset="0.58" stop-color="#eab308"/>
      <stop offset="1" stop-color="#854d0e"/>
    </linearGradient>
    <pattern id="check" width="12" height="12" patternUnits="userSpaceOnUse">
      <rect width="6" height="6" fill="#111827"/>
      <rect x="6" y="6" width="6" height="6" fill="#111827"/>
    </pattern>
  </defs>
  <ellipse cx="56" cy="114" rx="46" ry="101" fill="#020617" opacity="0.34"/>
  <rect x="18" y="12" width="76" height="196" rx="19" fill="url(#taxiBody)" stroke="#3f2d00" stroke-width="6"/>
  <rect x="30" y="38" width="52" height="38" rx="9" fill="#fef9c3" stroke="#422006" stroke-width="4"/>
  <rect x="24" y="94" width="64" height="20" fill="url(#check)" opacity="0.85"/>
  <rect x="36" y="120" width="40" height="22" rx="7" fill="#111827" opacity="0.28"/>
  <text x="56" y="163" text-anchor="middle" font-family="Arial, sans-serif" font-size="18" font-weight="900" fill="#111827">TAXI</text>
  <rect x="14" y="42" width="12" height="34" rx="5" fill="#111827"/>
  <rect x="86" y="42" width="12" height="34" rx="5" fill="#111827"/>
  <rect x="14" y="156" width="12" height="34" rx="5" fill="#111827"/>
  <rect x="86" y="156" width="12" height="34" rx="5" fill="#111827"/>
  <rect x="31" y="18" width="18" height="8" rx="3" fill="#fff7ed"/>
  <rect x="63" y="18" width="18" height="8" rx="3" fill="#fff7ed"/>
  <rect x="30" y="198" width="20" height="7" rx="3" fill="#ef4444"/>
  <rect x="62" y="198" width="20" height="7" rx="3" fill="#ef4444"/>
</svg>
