<svg xmlns="http://www.w3.org/2000/svg" viewBox="0 0 124 236" role="img" aria-label="Camioneta van top-down">
  <defs>
    <linearGradient id="vanBody" x1="0" x2="0" y1="0" y2="1">
      <stop offset="0" stop-color="#f8fafc"/>
      <stop offset="0.55" stop-color="#94a3b8"/>
      <stop offset="1" stop-color="#334155"/>
    </linearGradient>
  </defs>
  <ellipse cx="62" cy="122" rx="52" ry="108" fill="#020617" opacity="0.38"/>
  <rect x="18" y="12" width="88" height="212" rx="18" fill="url(#vanBody)" stroke="#1f2937" stroke-width="7"/>
  <rect x="31" y="30" width="62" height="52" rx="10" fill="#dbeafe" stroke="#0f172a" stroke-width="4"/>
  <rect x="26" y="94" width="72" height="78" rx="12" fill="#111827" opacity="0.24"/>
  <path d="M35 105h54M35 128h54M35 151h54" stroke="#e5e7eb" stroke-width="4" opacity="0.32"/>
  <text x="62" y="198" text-anchor="middle" font-family="Arial, sans-serif" font-size="16" font-weight="900" fill="#f8fafc">FLETES</text>
  <rect x="12" y="42" width="13" height="38" rx="5" fill="#111827"/>
  <rect x="99" y="42" width="13" height="38" rx="5" fill="#111827"/>
  <rect x="12" y="166" width="13" height="38" rx="5" fill="#111827"/>
  <rect x="99" y="166" width="13" height="38" rx="5" fill="#111827"/>
  <rect x="34" y="18" width="20" height="8" rx="3" fill="#fde68a"/>
  <rect x="70" y="18" width="20" height="8" rx="3" fill="#fde68a"/>
  <rect x="34" y="214" width="22" height="7" rx="3" fill="#ef4444"/>
  <rect x="68" y="214" width="22" height="7" rx="3" fill="#ef4444"/>
</svg>
